<?xml version="1.0" encoding="UTF-8" standalone="no"?>
<svg
   xmlns:dc="http://purl.org/dc/elements/1.1/"
   xmlns:cc="http://creativecommons.org/ns#"
   xmlns:rdf="http://www.w3.org/1999/02/22-rdf-syntax-ns#"
   xmlns:svg="http://www.w3.org/2000/svg"
   xmlns="http://www.w3.org/2000/svg"
   xmlns:xlink="http://www.w3.org/1999/xlink"
   id="svg175"
   version="1.1"
   viewBox="0 0 384 384"
   height="384"
   width="384">
  <metadata
     id="metadata179">
    <rdf:RDF>
      <cc:Work
         rdf:about="">
        <dc:format>image/svg+xml</dc:format>
        <dc:type
           rdf:resource="http://purl.org/dc/dcmitype/StillImage" />
        <dc:title>Ver 3 get strated illustration</dc:title>
      </cc:Work>
    </rdf:RDF>
  </metadata>
  <title
     id="title2">Ver 3 get strated illustration</title>
  <desc
     id="desc4">Created using Figma</desc>
  <g
     transform="matrix(0.76494024,0,0,0.7641791,-4344.4781,-1028.5851)"
     id="Canvas">
    <g
       id="g152">
      <g
         id="Ver 3 get strated illustration">
        <g
           style="opacity:0.2"
           id="Group 8">
          <g
             id="Path 5">
            <use
               height="100%"
               width="100%"
               y="0"
               x="0"
               style="fill:#979797"
               id="use6"
               transform="translate(5697,1349)"
               xlink:href="#path0_stroke" />
          </g>
          <g
             id="Path 6">
            <use
               height="100%"
               width="100%"
               y="0"
               x="0"
               style="fill:#979797"
               id="use9"
               transform="translate(5923,1460)"
               xlink:href="#path1_stroke" />
          </g>
          <g
             id="Path 8">
            <use
               height="100%"
               width="100%"
               y="0"
               x="0"
               style="fill:#979797"
               id="use12"
               transform="translate(5808,1604)"
               xlink:href="#path2_stroke" />
          </g>
          <g
             id="Path 9">
            <use
               height="100%"
               width="100%"
               y="0"
               x="0"
               style="fill:#979797"
               id="use15"
               transform="translate(5839,1348)"
               xlink:href="#path3_stroke" />
          </g>
          <g
             id="Path 10">
            <use
               height="100%"
               width="100%"
               y="0"
               x="0"
               style="fill:#979797"
               id="use18"
               transform="translate(5697,1570)"
               xlink:href="#path4_stroke" />
          </g>
          <g
             id="Path 11">
            <use
               height="100%"
               width="100%"
               y="0"
               x="0"
               style="fill:#979797"
               id="use21"
               transform="translate(5697,1347)"
               xlink:href="#path5_stroke" />
          </g>
          <g
             id="Path 12">
            <use
               height="100%"
               width="100%"
               y="0"
               x="0"
               style="fill:#979797"
               id="use24"
               transform="translate(5708,1389)"
               xlink:href="#path6_stroke" />
          </g>
          <g
             id="Path 13">
            <use
               height="100%"
               width="100%"
               y="0"
               x="0"
               style="fill:#979797"
               id="use27"
               transform="translate(5932,1600)"
               xlink:href="#path7_stroke" />
          </g>
          <g
             id="Path 14">
            <use
               height="100%"
               width="100%"
               y="0"
               x="0"
               style="fill:#979797"
               id="use30"
               transform="translate(5808,1711)"
               xlink:href="#path8_stroke" />
          </g>
          <g
             id="Path 15">
            <use
               height="100%"
               width="100%"
               y="0"
               x="0"
               style="fill:#979797"
               id="use33"
               transform="translate(5809,1750)"
               xlink:href="#path9_stroke" />
          </g>
        </g>
        <g
           id="dots">
          <g
             id="Oval 2">
            <use
               height="100%"
               width="100%"
               y="0"
               x="0"
               style="fill:#c4c4c4"
               id="use37"
               transform="translate(5835,1426)"
               xlink:href="#path10_fill" />
          </g>
          <g
             id="g42">
            <use
               height="100%"
               width="100%"
               y="0"
               x="0"
               style="fill:#cacaca"
               id="use40"
               transform="translate(5826,1417)"
               xlink:href="#path11_stroke" />
          </g>
        </g>
        <g
           id="g53">
          <g
             id="g47">
            <use
               height="100%"
               width="100%"
               y="0"
               x="0"
               style="fill:#c4c4c4"
               id="use45"
               transform="translate(6165,1706)"
               xlink:href="#path10_fill" />
          </g>
          <g
             id="g51">
            <use
               height="100%"
               width="100%"
               y="0"
               x="0"
               style="fill:#cacaca"
               id="use49"
               transform="translate(6156,1697)"
               xlink:href="#path11_stroke" />
          </g>
        </g>
        <g
           id="g63">
          <g
             id="g57">
            <use
               height="100%"
               width="100%"
               y="0"
               x="0"
               style="fill:#c4c4c4"
               id="use55"
               transform="translate(6086,1567)"
               xlink:href="#path10_fill" />
          </g>
          <g
             id="g61">
            <use
               height="100%"
               width="100%"
               y="0"
               x="0"
               style="fill:#cacaca"
               id="use59"
               transform="translate(6077,1558)"
               xlink:href="#path11_stroke" />
          </g>
        </g>
        <g
           id="g73">
          <g
             id="g67">
            <use
               height="100%"
               width="100%"
               y="0"
               x="0"
               style="fill:#c4c4c4"
               id="use65"
               transform="translate(5805,1746)"
               xlink:href="#path10_fill" />
          </g>
          <g
             id="g71">
            <use
               height="100%"
               width="100%"
               y="0"
               x="0"
               style="fill:#cacaca"
               id="use69"
               transform="translate(5796,1737)"
               xlink:href="#path11_stroke" />
          </g>
        </g>
        <g
           id="g83">
          <g
             id="g77">
            <use
               height="100%"
               width="100%"
               y="0"
               x="0"
               style="fill:#c4c4c4"
               id="use75"
               transform="translate(5855,1832)"
               xlink:href="#path10_fill" />
          </g>
          <g
             id="g81">
            <use
               height="100%"
               width="100%"
               y="0"
               x="0"
               style="fill:#cacaca"
               id="use79"
               transform="translate(5846,1823)"
               xlink:href="#path11_stroke" />
          </g>
        </g>
        <g
           id="g89">
          <g
             id="g87">
            <use
               height="100%"
               width="100%"
               y="0"
               x="0"
               style="fill:#7b7b7b"
               id="use85"
               transform="translate(5995,1816)"
               xlink:href="#path12_fill" />
          </g>
        </g>
        <g
           id="g95">
          <g
             id="g93">
            <use
               height="100%"
               width="100%"
               y="0"
               x="0"
               style="fill:#7b7b7b"
               id="use91"
               transform="translate(5705,1387)"
               xlink:href="#path12_fill" />
          </g>
        </g>
        <g
           id="g101">
          <g
             id="g99">
            <use
               height="100%"
               width="100%"
               y="0"
               x="0"
               style="fill:#7b7b7b"
               id="use97"
               transform="translate(5966,1346)"
               xlink:href="#path12_fill" />
          </g>
        </g>
        <g
           id="Group 7">
          <g
             id="g105">
            <use
               height="100%"
               width="100%"
               y="0"
               x="0"
               style="fill:#ff7e00"
               id="use103"
               transform="translate(5692,1565)"
               xlink:href="#path13_fill" />
          </g>
          <g
             id="g109">
            <use
               height="100%"
               width="100%"
               y="0"
               x="0"
               style="fill:#ff7e00"
               id="use107"
               transform="translate(5680,1553)"
               xlink:href="#path14_stroke" />
          </g>
        </g>
        <g
           id="g120">
          <g
             id="g114">
            <use
               height="100%"
               width="100%"
               y="0"
               x="0"
               style="fill:#ff7e00"
               id="use112"
               transform="translate(5692,1735)"
               xlink:href="#path13_fill" />
          </g>
          <g
             id="g118">
            <use
               height="100%"
               width="100%"
               y="0"
               x="0"
               style="fill:#ff7e00"
               id="use116"
               transform="translate(5680,1723)"
               xlink:href="#path14_stroke" />
          </g>
        </g>
        <g
           id="g130">
          <g
             id="g124">
            <use
               height="100%"
               width="100%"
               y="0"
               x="0"
               style="fill:#ff7e00"
               id="use122"
               transform="translate(6032,1705)"
               xlink:href="#path13_fill" />
          </g>
          <g
             id="g128">
            <use
               height="100%"
               width="100%"
               y="0"
               x="0"
               style="fill:#ff7e00"
               id="use126"
               transform="translate(6020,1693)"
               xlink:href="#path14_stroke" />
          </g>
        </g>
        <g
           id="g140">
          <g
             id="g134">
            <use
               height="100%"
               width="100%"
               y="0"
               x="0"
               style="fill:#ff7e00"
               id="use132"
               transform="translate(6122,1455)"
               xlink:href="#path13_fill" />
          </g>
          <g
             id="g138">
            <use
               height="100%"
               width="100%"
               y="0"
               x="0"
               style="fill:#ff7e00"
               id="use136"
               transform="translate(6110,1443)"
               xlink:href="#path14_stroke" />
          </g>
        </g>
        <g
           id="Group 6">
          <g
             id="path3094">
            <use
               height="100%"
               width="100%"
               y="0"
               x="0"
               style="fill:#f7931a"
               id="use142"
               transform="translate(5841,1517)"
               xlink:href="#path15_fill" />
            <use
               height="100%"
               width="100%"
               y="0"
               x="0"
               style="fill:#f7931a"
               id="use144"
               transform="translate(5841,1517)"
               xlink:href="#path16_stroke" />
          </g>
          <g
             id="path3096">
            <use
               height="100%"
               width="100%"
               y="0"
               x="0"
               style="fill:#ffffff"
               id="use147"
               transform="translate(5879.74,1544.79)"
               xlink:href="#path17_fill" />
          </g>
        </g>
      </g>
    </g>
  </g>
  <defs
     id="defs173">
    <path
       d="m 433,111 0.494,-0.077 -0.085,-0.542 -0.531,0.134 z M 0,220 l -0.122058,-0.485 0.0495009,0.98 z m 225,33 -0.073,0.495 0.475,0.069 0.089,-0.471 z m 247.494,106.923 -39,-249 -0.988,0.154 39,249 z m -39.616,-249.408 -433.000058,109 0.244116,0.97 432.999942,-109 z m -432.9505571,109.98 224.9995571,33 0.146,-0.99 -225.0004429,-33 z M 225.491,253.093 l 48,-252.9998009 -0.982,-0.1863982 -48,253.0001991 z"
       id="path0_stroke" />
    <path
       d="m 76,360 -0.4721,0.165 0.4638,1.33 0.4786,-1.325 z m -76.472131,-217.835 76.000031,218 0.9442,-0.33 -75.999969,-218 z M 76.4703,360.17 206.47,0.169822 205.53,-0.169822 75.5297,359.83 Z"
       id="path1_stroke" />
    <path
       d="m 0,145 -0.391749,-0.311 -0.427075,0.539 0.643803,0.24 z M 114.608,-0.310697 -0.391749,144.689 0.391749,145.311 115.392,0.310697 Z M -0.175021,145.468 l 190.000021,71 0.35,-0.936 -189.999979,-71 z"
       id="path2_stroke" />
    <path
       d="m 0,81 -0.258655,-0.4279 -0.386693,0.2337 0.193532,0.4084 z M 82.4518,253.786 0.451816,80.7858 -0.451816,81.2142 81.5482,254.214 Z M 0.258655,81.4279 134.259,0.427899 133.741,-0.427899 -0.258655,80.5721 Z"
       id="path3_stroke" />
    <path
       d="m 113,180 -0.04,0.498 0.993,0.079 -0.53,-0.843 z M 0,171 h -0.5 v 0.462 l 0.4603027,0.036 z M 0,0 0.42347,-0.265845 -0.5,-1.73686 V 0 Z m 113.04,179.502 -113.0003027,-9 -0.0793946,0.996 112.9996973,9 z M 0.5,171 V 0 h -1 V 171 Z M -0.42347,0.265845 112.577,180.266 113.423,179.734 0.42347,-0.265845 Z"
       id="path4_stroke" />
    <path
       d="m 271.5,0 0.288,-0.408837 -0.726,0.649149 z m 199.5,364 0.274,0.418 0.387,-0.253 -0.223,-0.405 z m -168,110 -0.319,0.385 0.284,0.235 0.309,-0.202 z M 0,223 l -0.353553,-0.354 -0.388293,0.389 0.42288,0.35 z m 142,-142 0.327,-0.3786 -0.352,-0.3034 -0.329,0.3284 z M 432.288,112.591 271.788,-0.408837 271.212,0.408837 431.712,113.409 Z M 271.062,0.240312 470.562,364.24 471.438,363.76 271.938,-0.240312 Z M 470.726,363.582 l -168,110 0.548,0.836 168,-110 z m -167.407,110.033 -303.000034,-251 -0.637932,0.77 302.999966,251 z M 0.353553,223.354 142.354,81.3536 141.646,80.6464 -0.353553,222.646 Z M 141.673,81.3786 l 328,283.0004 0.654,-0.758 -328,-282.9996 z"
       id="path5_stroke" />
    <path
       d="M 132.148,40.5225 0.148313,-0.477497 -0.148313,0.477497 131.852,41.4775 Z"
       id="path6_stroke" />
    <path
       d="m 106,111 -0.362,0.345 0.148,0.155 H 106 Z m 132,-0.5 H 106 v 1 H 238 Z M 106.362,110.655 0.361604,-0.345315 -0.361604,0.345315 105.638,111.345 Z"
       id="path7_stroke" />
    <path
       d="M 0.0821995,39.4932 234.082,0.493197 233.918,-0.493197 -0.0821995,38.5068 Z"
       id="path8_stroke" />
    <path
       d="M -0.430967,0.25351 49.569,85.2535 50.431,84.7465 0.430967,-0.25351 Z"
       id="path9_stroke" />
    <path
       style="fill-rule:evenodd"
       d="M 3.5,7 C 5.433,7 7,5.433 7,3.5 7,1.567 5.433,0 3.5,0 1.567,0 0,1.567 0,3.5 0,5.433 1.567,7 3.5,7 Z"
       id="path10_fill" />
    <path
       d="m 12.5,25.5 c 7.1797,0 13,-5.8203 13,-13 h -1 c 0,6.6274 -5.3726,12 -12,12 z m 13,-13 c 0,-7.1797 -5.8203,-13 -13,-13 v 1 c 6.6274,0 12,5.37258 12,12 z m -13,-13 c -7.1797,0 -13,5.8203 -13,13 h 1 c 0,-6.62742 5.37258,-12 12,-12 z m -13,13 c 0,7.1797 5.8203,13 13,13 v -1 c -6.62742,0 -12,-5.3726 -12,-12 z"
       id="path11_stroke" />
    <path
       style="fill-rule:evenodd"
       d="M 4,8 C 6.20914,8 8,6.20914 8,4 8,1.79086 6.20914,0 4,0 1.79086,0 0,1.79086 0,4 0,6.20914 1.79086,8 4,8 Z"
       id="path12_fill" />
    <path
       style="fill-rule:evenodd"
       d="M 5.5,11 C 8.53757,11 11,8.53757 11,5.5 11,2.46243 8.53757,0 5.5,0 2.46243,0 0,2.46243 0,5.5 0,8.53757 2.46243,11 5.5,11 Z"
       id="path13_fill" />
    <path
       d="m 17.5,35.5 c 9.9411,0 18,-8.0589 18,-18 h -1 c 0,9.3888 -7.6112,17 -17,17 z m 18,-18 c 0,-9.94113 -8.0589,-18 -18,-18 v 1 c 9.3888,0 17,7.61116 17,17 z m -18,-18 c -9.94113,0 -18,8.05887 -18,18 h 1 c 0,-9.38884 7.61116,-17 17,-17 z m -18,18 c 0,9.9411 8.05887,18 18,18 v -1 c -9.38884,0 -17,-7.6112 -17,-17 z"
       id="path14_stroke" />
    <path
       d="M 157.605,99.353 C 146.919,142.21 103.507,168.292 60.6401,157.605 17.7905,146.92 -8.29473,103.51 2.39641,60.6559 13.0775,17.7938 56.4897,-8.29093 99.3442,2.39397 142.209,13.0789 168.292,56.4934 157.605,99.353 Z"
       id="path15_fill" />
    <path
       d="m 157.605,99.353 0.486,0.121 v -1e-4 z m -96.9649,58.252 -0.121,0.485 h 10e-5 z M 2.39641,60.6559 l 0.48513,0.121 3e-5,-10e-5 z M 99.3442,2.39397 99.2233,2.87911 v 1e-5 z M 157.12,99.232 c -10.619,42.589 -53.76,68.508 -96.3589,57.888 l -0.2419,0.97 C 103.654,168.844 147.338,142.599 158.091,99.474 Z M 60.7611,157.12 C 18.1794,146.502 -7.74274,103.363 2.88154,60.7769 L 1.91128,60.5348 C -8.84672,103.657 17.4017,147.338 60.5191,158.09 Z M 2.88157,60.7768 C 13.4959,18.1827 56.6367,-7.73897 99.2233,2.87911 L 99.4652,1.90882 C 56.3427,-8.84288 12.6592,17.4049 1.91124,60.535 Z M 99.2233,2.87912 C 141.82,13.4972 167.74,56.6404 157.12,99.232 l 0.971,0.2419 C 168.844,56.3465 142.598,12.6605 99.4652,1.90881 Z"
       id="path16_stroke" />
    <path
       style="fill-rule:evenodd"
       d="M 58.814,20.6616 62.4136,6.15796 53.625,3.95776 50.1206,18.0792 C 47.8101,17.5009 45.437,16.9552 43.0791,16.4146 L 46.6089,2.2002 37.8252,0 34.2231,14.4985 c -1.9126,-0.4375 -3.79,-0.87 -5.6123,-1.325 L 16.501,10.0881 14.1631,19.5175 c 0,0 6.5205,1.5012 6.3828,1.5942 3.5596,0.8926 4.2026,3.2588 4.0952,5.1345 L 20.541,42.769 c 0.2451,0.0628 0.563,0.1534 0.9136,0.2942 l -0.2905,-0.0728 c -0.2061,-0.052 -0.42,-0.1059 -0.6382,-0.1585 l -5.7471,23.1459 c -0.4355,1.0862 -1.5395,2.7156 -4.0278,2.097 0.0879,0.1283 -6.38821,-1.6017 -6.38821,-1.6017 L 0,76.5789 l 11.437,2.864 c 1.2598,0.3171 2.5049,0.6433 3.7373,0.966 l 0.0586,0.0153 c 0.8286,0.2172 1.6519,0.4327 2.4692,0.6431 l -3.6367,14.6694 8.7784,2.2002 3.602,-14.5136 c 2.398,0.6537 4.7261,1.2572 7.0039,1.8255 l -3.5893,14.4458 8.7885,2.2004 3.6367,-14.6422 C 57.272,90.1018 68.5415,88.9526 73.2847,75.3367 77.1069,64.3735 73.0947,58.0496 65.2095,53.9258 70.9517,52.5956 75.2773,48.8013 76.4312,40.9636 78.0259,30.2568 69.9106,24.5012 58.814,20.6616 Z m -29.5122,52.138 4.8261,-19.4345 c 0.5923,0.1486 1.315,0.3115 2.1324,0.4959 l 0.0268,0.0061 c 7.417,1.6717 22.6172,5.098 20.064,15.382 -2.4922,10.0583 -18.1651,5.8999 -25.336,3.9972 -0.645,-0.1711 -1.2216,-0.3241 -1.7133,-0.4467 z M 40.7114,26.8422 36.3359,44.4688 c 0.4136,0.1035 0.8985,0.2335 1.4419,0.3791 5.979,1.6029 19.0201,5.0989 21.292,-4.0427 2.3198,-9.3507 -10.3554,-12.1693 -16.5459,-13.546 -0.6968,-0.1548 -1.311,-0.2914 -1.8125,-0.417 z"
       id="path17_fill" />
  </defs>
</svg>
